<svg width="81" height="60" viewBox="0 0 81 60" fill="none" xmlns="http://www.w3.org/2000/svg">
<g id="boutton like">
<g id="Vector">
<mask id="path-1-inside-1_9_423" fill="white">
<path d="M74.5793 4.44351C71.1419 5.8596 67.6401 7.69508 64.5052 9.78654C63.4888 10.4674 62.2578 12.094 60.9444 11.199C60.4702 10.8468 60.0783 10.3439 59.6185 9.96082C59.0942 9.49424 58.5377 9.16382 58.1422 8.70994C56.6732 7.09051 56.4853 4.7467 55.4779 2.85131C54.9858 1.91088 54.2772 1.01947 53.3396 0.512944C51.2282 -0.525524 48.0342 0.15529 46.0104 1.28816C45.3269 1.73296 44.8724 2.62256 44.0582 2.85857C43.4248 3.03831 42.7108 2.75872 42.0863 2.58443C39.9856 1.94901 37.8724 2.1941 36.0687 3.34331C35.5105 3.73365 34.8377 3.89886 34.2704 3.44498C31.9103 1.67123 28.1508 0.195231 25.7012 2.74783C23.9208 4.5833 24.4594 7.6279 23.3822 8.72447C22.9975 9.14566 22.3855 9.13659 21.8308 9.24733C21.1849 9.34718 20.5944 9.70847 20.1452 10.1878C19.2613 11.0574 19.5118 12.1648 19.1468 13.1961C19.0215 13.5192 18.6493 13.7153 18.3827 13.9676C18.1143 13.8878 17.8298 13.748 17.5865 13.5011C17.2823 13.1924 16.8188 12.9183 16.384 12.7022C16.3697 12.6841 16.3536 12.6677 16.3393 12.6478C15.4822 11.6747 14.303 10.7397 13.0343 9.97535C12.29 9.3018 10.676 8.80072 10.6116 8.78075C10.2966 8.66092 9.98707 8.55381 9.68109 8.46667L8.99756 8.2361L8.95819 8.23247C8.59853 8.05818 8.30687 7.7913 8.09751 7.4046C7.12589 6.16279 3.72969 5.00268 1.95644 6.023C-1.91931 8.53565 0.839881 15.6506 2.74555 18.6244C4.06788 22.5695 7.17778 25.7866 9.59162 29.9005C10.0765 30.6902 10.5042 31.5472 11.1233 32.2298C11.5295 32.6328 12.0574 32.8452 12.2864 33.3699C12.5351 33.9454 12.825 34.5337 13.199 35.0384C13.632 35.7355 14.7271 36.6052 14.0525 37.4167C13.6499 37.8796 12.7856 38.2119 12.2846 38.8273C11.9929 39.1777 11.746 39.5481 11.3738 39.8204C10.905 40.1672 10.327 40.4468 9.95486 40.9242C9.63457 41.3128 9.39479 41.8411 9.06197 42.0607C7.11694 43.0284 4.37923 43.4532 3.08731 45.3904C2.63639 46.4397 4.04462 47.1006 4.69952 47.8377C5.3598 48.4168 4.88025 49.3046 4.76573 50.0798C4.3846 51.9861 5.46 52.233 7.70922 51.2599C8.31581 51.0566 9.33575 50.3975 9.84034 50.8641C10.8316 51.7483 10.9712 55.7896 12.281 55.7097C13.3457 55.5009 13.9845 54.0703 14.6644 53.2515C15.2621 52.4509 15.8007 52.0823 16.0906 51.1619C17.1033 47.1823 29.8149 37.3531 26.7211 43.6402C26.1861 44.6279 25.5258 45.5792 24.862 46.4307C23.0547 48.9887 19.4563 50.4756 19.2917 53.778C19.247 54.3027 19.0376 54.7838 19.3454 55.2086C20.4781 56.5285 22.6289 54.9744 23.8313 55.6879C24.8996 56.9352 24.5202 59.5785 26.6406 59.938C28.4658 60.4246 29.1672 57.8901 30.1961 57.7957C31.3055 57.8266 31.8297 59.613 32.864 59.9235C36.083 60.7241 36.2906 51.8027 36.559 49.379C36.6735 48.2825 36.7791 47.1369 38.0317 47.1841C39.4327 47.1405 41.095 47.5309 42.5534 47.2113C43.1152 47.0897 43.7701 46.9136 44.2121 47.3983C45.9853 49.8293 45.6096 53.8597 45.7026 56.8934C45.3519 60.3828 46.6188 59.8436 48.5728 57.8502C48.9217 57.5307 49.2133 57.1294 49.6786 57.0931C50.5911 57.0623 51.7811 59.4968 53.0336 59.3552C54.2432 59.1138 54.6941 57.6124 54.9715 56.5539C55.3598 54.4643 56.2384 55.1451 57.6144 55.9094C58.2353 56.1981 59.0136 56.3252 59.7097 56.3106C61.7138 56.258 61.5724 54.3699 60.3163 52.4182C59.3876 51.0057 58.2603 49.9654 57.2619 48.6183C54.4758 45.0091 55.961 44.853 59.9459 46.8337C62.8715 48.3279 66.1031 50.127 68.5974 51.6666C70.4691 53.2406 73.4734 54.8437 72.5609 51.289C72.4016 50.7261 72.4106 50.3649 73.0851 50.2813C74.9747 50.1561 76.8857 48.8525 75.4399 47.2585C75.2199 46.9735 74.6097 46.5741 74.6258 46.2182C74.6258 45.9005 75.3594 45.601 75.6475 45.3795C81.1802 42.1043 72.1135 38.7474 67.4308 38.0812C66.0941 37.7725 63.7805 38.9671 64.4461 36.6124C65.9474 31.6452 78.1884 18.4665 79.2298 13.5646L79.2405 13.5464C82.6904 9.14203 81.0317 3.02742 74.5757 4.44714L74.5793 4.44351ZM14.2243 25.2655C14.1312 25.2111 14.0829 25.1348 14.0328 24.995C13.972 24.7826 13.7877 24.2507 13.5819 23.9039C12.2381 21.4058 8.22277 16.6855 10.1624 16.2388C10.4058 16.1735 10.676 16.2407 10.88 16.3659L10.8996 16.3768C11.3488 16.651 11.7603 16.7962 12.1092 17.2628C12.2774 17.4861 12.4242 17.7802 12.6443 17.949C12.8769 18.1179 13.1453 18.1433 13.369 18.2867C13.6123 18.4102 13.827 18.6389 14.0668 18.8078C14.4569 19.1527 14.8004 19.5612 15.2997 19.7682C15.4571 19.8499 15.6736 19.917 15.7059 20.104C15.7416 20.3491 15.5502 20.5071 15.7828 20.8066C16.1389 21.1679 16.622 21.4693 17.0282 21.7852C17.5596 22.1537 18.0266 22.2227 18.3792 22.6657C18.5509 22.9126 18.7585 23.1105 19.0376 23.2322C19.5047 23.4536 19.7731 24.0727 20.1148 24.4721C20.7196 25.0331 21.5481 24.8661 21.8129 25.8465C22.2925 26.8995 22.1976 28.0015 22.2871 29.1035C22.4983 29.9677 22.908 30.8682 23.0494 31.7705C23.8403 36.233 15.7613 25.2909 14.2261 25.2637L14.2243 25.2655ZM34.1398 7.88389C34.1684 8.74807 33.8893 9.59228 33.365 10.2749C32.703 11.1718 31.9765 11.1972 30.9011 11.4314C30.5539 11.5076 30.2068 11.5748 29.8489 11.5712C29.4499 11.5766 29.0795 11.4804 28.7359 11.5222C28.4783 11.5548 28.2117 11.7291 27.9737 11.5512C27.8967 11.4986 27.8556 11.4641 27.7733 11.3896C27.5908 11.2208 27.4476 11.0683 27.1112 11.0156C26.9305 10.9848 26.7426 10.9684 26.5637 10.9176C26.0555 10.8032 25.762 10.3385 25.5956 9.85553C23.6059 4.59783 30.01 1.35352 33.7193 5.18242L33.7408 5.20965C34.7052 6.53679 34.2919 6.47506 34.1416 7.88389H34.1398ZM54.347 9.06397L54.3237 9.09483C51.2639 11.9906 46.1142 9.76112 45.4682 5.74159C45.377 5.2387 45.4414 4.71947 45.7116 4.27648C48.8626 -0.378469 57.3173 4.10401 54.347 9.06397ZM65.1762 24.7989L65.1458 24.8298C64.9185 25.0676 64.702 25.2655 64.4783 25.4852C63.5855 26.2205 62.578 28.5407 61.4883 28.6224C61.2038 28.5734 61.0947 28.1612 61.0392 27.869C60.5131 25.153 59.8904 22.5622 62.2613 20.8484C62.6192 20.5597 62.9985 20.262 63.3296 19.9497C64.999 18.2976 66.7025 16.513 68.5957 15.3837C72.5394 13.1271 68.6475 20.9138 65.1762 24.7971V24.7989Z"/>
</mask>
<path d="M74.5793 4.44351C71.1419 5.8596 67.6401 7.69508 64.5052 9.78654C63.4888 10.4674 62.2578 12.094 60.9444 11.199C60.4702 10.8468 60.0783 10.3439 59.6185 9.96082C59.0942 9.49424 58.5377 9.16382 58.1422 8.70994C56.6732 7.09051 56.4853 4.7467 55.4779 2.85131C54.9858 1.91088 54.2772 1.01947 53.3396 0.512944C51.2282 -0.525524 48.0342 0.15529 46.0104 1.28816C45.3269 1.73296 44.8724 2.62256 44.0582 2.85857C43.4248 3.03831 42.7108 2.75872 42.0863 2.58443C39.9856 1.94901 37.8724 2.1941 36.0687 3.34331C35.5105 3.73365 34.8377 3.89886 34.2704 3.44498C31.9103 1.67123 28.1508 0.195231 25.7012 2.74783C23.9208 4.5833 24.4594 7.6279 23.3822 8.72447C22.9975 9.14566 22.3855 9.13659 21.8308 9.24733C21.1849 9.34718 20.5944 9.70847 20.1452 10.1878C19.2613 11.0574 19.5118 12.1648 19.1468 13.1961C19.0215 13.5192 18.6493 13.7153 18.3827 13.9676C18.1143 13.8878 17.8298 13.748 17.5865 13.5011C17.2823 13.1924 16.8188 12.9183 16.384 12.7022C16.3697 12.6841 16.3536 12.6677 16.3393 12.6478C15.4822 11.6747 14.303 10.7397 13.0343 9.97535C12.29 9.3018 10.676 8.80072 10.6116 8.78075C10.2966 8.66092 9.98707 8.55381 9.68109 8.46667L8.99756 8.2361L8.95819 8.23247C8.59853 8.05818 8.30687 7.7913 8.09751 7.4046C7.12589 6.16279 3.72969 5.00268 1.95644 6.023C-1.91931 8.53565 0.839881 15.6506 2.74555 18.6244C4.06788 22.5695 7.17778 25.7866 9.59162 29.9005C10.0765 30.6902 10.5042 31.5472 11.1233 32.2298C11.5295 32.6328 12.0574 32.8452 12.2864 33.3699C12.5351 33.9454 12.825 34.5337 13.199 35.0384C13.632 35.7355 14.7271 36.6052 14.0525 37.4167C13.6499 37.8796 12.7856 38.2119 12.2846 38.8273C11.9929 39.1777 11.746 39.5481 11.3738 39.8204C10.905 40.1672 10.327 40.4468 9.95486 40.9242C9.63457 41.3128 9.39479 41.8411 9.06197 42.0607C7.11694 43.0284 4.37923 43.4532 3.08731 45.3904C2.63639 46.4397 4.04462 47.1006 4.69952 47.8377C5.3598 48.4168 4.88025 49.3046 4.76573 50.0798C4.3846 51.9861 5.46 52.233 7.70922 51.2599C8.31581 51.0566 9.33575 50.3975 9.84034 50.8641C10.8316 51.7483 10.9712 55.7896 12.281 55.7097C13.3457 55.5009 13.9845 54.0703 14.6644 53.2515C15.2621 52.4509 15.8007 52.0823 16.0906 51.1619C17.1033 47.1823 29.8149 37.3531 26.7211 43.6402C26.1861 44.6279 25.5258 45.5792 24.862 46.4307C23.0547 48.9887 19.4563 50.4756 19.2917 53.778C19.247 54.3027 19.0376 54.7838 19.3454 55.2086C20.4781 56.5285 22.6289 54.9744 23.8313 55.6879C24.8996 56.9352 24.5202 59.5785 26.6406 59.938C28.4658 60.4246 29.1672 57.8901 30.1961 57.7957C31.3055 57.8266 31.8297 59.613 32.864 59.9235C36.083 60.7241 36.2906 51.8027 36.559 49.379C36.6735 48.2825 36.7791 47.1369 38.0317 47.1841C39.4327 47.1405 41.095 47.5309 42.5534 47.2113C43.1152 47.0897 43.7701 46.9136 44.2121 47.3983C45.9853 49.8293 45.6096 53.8597 45.7026 56.8934C45.3519 60.3828 46.6188 59.8436 48.5728 57.8502C48.9217 57.5307 49.2133 57.1294 49.6786 57.0931C50.5911 57.0623 51.7811 59.4968 53.0336 59.3552C54.2432 59.1138 54.6941 57.6124 54.9715 56.5539C55.3598 54.4643 56.2384 55.1451 57.6144 55.9094C58.2353 56.1981 59.0136 56.3252 59.7097 56.3106C61.7138 56.258 61.5724 54.3699 60.3163 52.4182C59.3876 51.0057 58.2603 49.9654 57.2619 48.6183C54.4758 45.0091 55.961 44.853 59.9459 46.8337C62.8715 48.3279 66.1031 50.127 68.5974 51.6666C70.4691 53.2406 73.4734 54.8437 72.5609 51.289C72.4016 50.7261 72.4106 50.3649 73.0851 50.2813C74.9747 50.1561 76.8857 48.8525 75.4399 47.2585C75.2199 46.9735 74.6097 46.5741 74.6258 46.2182C74.6258 45.9005 75.3594 45.601 75.6475 45.3795C81.1802 42.1043 72.1135 38.7474 67.4308 38.0812C66.0941 37.7725 63.7805 38.9671 64.4461 36.6124C65.9474 31.6452 78.1884 18.4665 79.2298 13.5646L79.2405 13.5464C82.6904 9.14203 81.0317 3.02742 74.5757 4.44714L74.5793 4.44351ZM14.2243 25.2655C14.1312 25.2111 14.0829 25.1348 14.0328 24.995C13.972 24.7826 13.7877 24.2507 13.5819 23.9039C12.2381 21.4058 8.22277 16.6855 10.1624 16.2388C10.4058 16.1735 10.676 16.2407 10.88 16.3659L10.8996 16.3768C11.3488 16.651 11.7603 16.7962 12.1092 17.2628C12.2774 17.4861 12.4242 17.7802 12.6443 17.949C12.8769 18.1179 13.1453 18.1433 13.369 18.2867C13.6123 18.4102 13.827 18.6389 14.0668 18.8078C14.4569 19.1527 14.8004 19.5612 15.2997 19.7682C15.4571 19.8499 15.6736 19.917 15.7059 20.104C15.7416 20.3491 15.5502 20.5071 15.7828 20.8066C16.1389 21.1679 16.622 21.4693 17.0282 21.7852C17.5596 22.1537 18.0266 22.2227 18.3792 22.6657C18.5509 22.9126 18.7585 23.1105 19.0376 23.2322C19.5047 23.4536 19.7731 24.0727 20.1148 24.4721C20.7196 25.0331 21.5481 24.8661 21.8129 25.8465C22.2925 26.8995 22.1976 28.0015 22.2871 29.1035C22.4983 29.9677 22.908 30.8682 23.0494 31.7705C23.8403 36.233 15.7613 25.2909 14.2261 25.2637L14.2243 25.2655ZM34.1398 7.88389C34.1684 8.74807 33.8893 9.59228 33.365 10.2749C32.703 11.1718 31.9765 11.1972 30.9011 11.4314C30.5539 11.5076 30.2068 11.5748 29.8489 11.5712C29.4499 11.5766 29.0795 11.4804 28.7359 11.5222C28.4783 11.5548 28.2117 11.7291 27.9737 11.5512C27.8967 11.4986 27.8556 11.4641 27.7733 11.3896C27.5908 11.2208 27.4476 11.0683 27.1112 11.0156C26.9305 10.9848 26.7426 10.9684 26.5637 10.9176C26.0555 10.8032 25.762 10.3385 25.5956 9.85553C23.6059 4.59783 30.01 1.35352 33.7193 5.18242L33.7408 5.20965C34.7052 6.53679 34.2919 6.47506 34.1416 7.88389H34.1398ZM54.347 9.06397L54.3237 9.09483C51.2639 11.9906 46.1142 9.76112 45.4682 5.74159C45.377 5.2387 45.4414 4.71947 45.7116 4.27648C48.8626 -0.378469 57.3173 4.10401 54.347 9.06397ZM65.1762 24.7989L65.1458 24.8298C64.9185 25.0676 64.702 25.2655 64.4783 25.4852C63.5855 26.2205 62.578 28.5407 61.4883 28.6224C61.2038 28.5734 61.0947 28.1612 61.0392 27.869C60.5131 25.153 59.8904 22.5622 62.2613 20.8484C62.6192 20.5597 62.9985 20.262 63.3296 19.9497C64.999 18.2976 66.7025 16.513 68.5957 15.3837C72.5394 13.1271 68.6475 20.9138 65.1762 24.7971V24.7989Z" stroke="#E1E4C9" stroke-width="2" mask="url(#path-1-inside-1_9_423)"/>
</g>
<path id="Vector_2" d="M29.554 5.68727L29.554 5.68728L29.5557 5.68837C29.9854 5.96435 30.5278 6.55347 30.8995 7.23141C31.2786 7.92299 31.3986 8.55353 31.2359 8.97252L31.231 8.9831C31.1497 9.14949 30.973 9.26906 30.7406 9.29559C30.5066 9.3223 30.2845 9.24539 30.1494 9.10002C30.059 8.99403 29.9901 8.84248 29.9108 8.61322C29.8976 8.57488 29.8836 8.53265 29.8687 8.48763C29.8056 8.29755 29.7262 8.05797 29.6174 7.8532C29.5025 7.63113 29.3506 7.47822 29.2306 7.36632C29.1956 7.33363 29.165 7.30574 29.1377 7.28085C29.0605 7.2105 29.0096 7.16411 28.9585 7.10092L28.9586 7.10086L28.9522 7.09332C28.8715 6.99746 28.78 6.78237 28.7356 6.46847L28.7344 6.46019L28.733 6.45196C28.6309 5.87103 28.772 5.60179 28.858 5.52787C28.8966 5.49464 29.0799 5.38006 29.554 5.68727Z" stroke="#E1E4C9"/>
<path id="Vector_3" d="M49.3082 7.96366L49.3007 7.94734L49.292 7.9316C49.1892 7.7446 49.1038 7.44624 49.0641 7.06864C49.0252 6.69791 49.0337 6.28359 49.0937 5.88551C49.1541 5.48515 49.2634 5.12199 49.412 4.84288C49.5574 4.56973 49.7192 4.41492 49.8738 4.34647C50.2956 4.24262 50.8898 4.38158 51.2333 4.68374C51.3868 4.82311 51.4741 5.00317 51.5179 5.26262C51.5644 5.53778 51.556 5.86354 51.5362 6.27278C51.5048 6.71505 51.431 7.16268 51.3022 7.54378C51.1709 7.9323 50.9991 8.20271 50.8055 8.35202C50.3404 8.70154 49.5599 8.51142 49.3082 7.96366Z" stroke="#E1E4C9"/>
</g>
</svg>
